<?xml version="1.0" standalone="no"?><!DOCTYPE svg PUBLIC "-//W3C//DTD SVG 1.1//EN" "http://www.w3.org/Graphics/SVG/1.1/DTD/svg11.dtd"><svg t="1607848011637" class="icon" viewBox="0 0 1024 1024" version="1.1" xmlns="http://www.w3.org/2000/svg" p-id="3340" xmlns:xlink="http://www.w3.org/1999/xlink" width="200" height="200"><defs><style type="text/css"></style></defs><path d="M822 297L677 152l75-75c25-25 65-25 85 0l60 60c25 25 25 65 0 85l-75 75zM402 717L257 572l395-390 145 145-395 390zM142 837l90-235 145 145-235 90z m650 50c20 0 35 15 35 35s-15 35-35 35H142c-20 5-35-15-35-35s15-35 35-35h650z" p-id="3341" fill="#e6e6e6"></path></svg>